<mxfile host="app.diagrams.net" modified="2024-03-18T11:59:39.140Z" agent="Mozilla/5.0 (Windows NT 10.0; Win64; x64) AppleWebKit/537.36 (KHTML, like Gecko) Chrome/121.0.0.0 Safari/537.36" version="24.0.7" etag="xFA8mGIGzSC07m60rKmM" type="github">
  <diagram name="Page-1" id="gSslxhZqnhjKEsfpoDUl">
    <mxGraphModel>
      <root>
        <mxCell id="0" />
        <mxCell id="1" parent="0" />
      </root>
    </mxGraphModel>
  </diagram>
</mxfile>
